<svg width="163" height="49" viewBox="0 0 163 49" fill="none" xmlns="http://www.w3.org/2000/svg">
<path d="M81.5421 24.4922C79.3414 24.4922 77.5574 22.7082 77.5574 20.5075L77.5574 20.119L77.5574 16.9926L77.5574 16.6493C77.5574 15.272 79.2378 14.5995 80.188 15.5965L81.536 17.0108C81.9152 17.4087 82.5763 17.2972 82.8042 16.7971C82.958 16.4593 82.8512 16.0598 82.5492 15.844L78.9757 13.2898C78.0856 12.6536 77.5574 11.6268 77.5574 10.5327L77.5574 8.74093C77.5574 7.85888 78.2724 7.14383 79.1545 7.14383C79.6616 7.14383 80.1385 7.38464 80.4396 7.79268L85.139 14.1616C85.3016 14.382 85.6258 14.397 85.8082 14.1926C85.9483 14.0355 85.9546 13.8002 85.8231 13.6359L84.4851 11.9634C82.9313 10.0211 84.3141 7.14383 86.8015 7.14383L86.9183 7.14383L87.7134 7.14383L89.647 7.14383L92.3975 7.14383C93.7828 7.14383 94.9057 8.26679 94.9057 9.65202L94.9057 10.2965C94.9057 11.2242 94.2004 11.9999 93.2769 12.0878L92.2535 12.1853C91.6604 12.2418 91.2654 12.8242 91.4322 13.3961C91.5955 13.9561 92.2206 14.2376 92.7482 13.9889L93.0905 13.8275C93.9346 13.4296 94.9057 14.0454 94.9057 14.9786L94.9057 15.0141C94.9057 15.4079 94.7265 15.7804 94.4187 16.0261L89.818 19.699C89.6401 19.841 89.6253 20.1063 89.7863 20.2673C89.9232 20.4042 90.1411 20.4169 90.293 20.2968L92.5527 18.5099C93.5049 17.757 94.9057 18.4352 94.9057 19.6491L94.9057 20.119L94.9057 20.7847C94.9057 22.8323 93.2459 24.4922 91.1983 24.4922C89.7469 24.4922 88.4289 23.6452 87.8259 22.325L86.6108 19.6643C86.3011 18.9864 85.5017 18.6862 84.8224 18.9929C83.8009 19.4541 83.7503 20.886 84.7368 21.4181L86.706 22.4802C86.8457 22.5556 86.967 22.6612 87.0609 22.7892C87.5793 23.4961 87.0745 24.4922 86.1979 24.4922L83.2859 24.4922L83.0691 24.4922L81.5421 24.4922Z" fill="white"/>
<path d="M98.2546 24.4922C97.196 24.4922 96.3379 23.6341 96.3379 22.5755L96.3379 17.4581C96.3379 16.1555 97.8583 15.445 98.8575 16.2807L100.012 17.2462C100.217 17.4179 100.53 17.345 100.638 17.1003C100.713 16.931 100.662 16.7324 100.516 16.6194L97.826 14.5444C96.8875 13.8205 96.3379 12.7023 96.3379 11.5171L96.3379 11.0472L96.3379 10.8304C96.3379 8.79434 97.9884 7.14383 100.024 7.14383L100.422 7.14383C103.088 7.14383 105.329 9.14566 105.628 11.7947L105.699 12.4206L105.603 10.087C105.537 8.48144 106.821 7.14383 108.428 7.14383L110.65 7.14383C112.327 7.14383 113.686 8.50308 113.686 10.1798L113.686 10.5864C113.686 12.0385 112.509 13.2158 111.057 13.2158L109.088 13.2158C108.723 13.2158 108.428 13.5115 108.428 13.8764C108.428 14.3152 108.847 14.6321 109.269 14.5118L109.942 14.3199C110.974 14.0256 111.837 15.1415 111.293 16.0663L109.513 19.0896C109.456 19.1852 109.525 19.3057 109.636 19.3057C109.683 19.3057 109.727 19.283 109.753 19.2448L110.272 18.5076C111.326 17.0068 113.686 17.7532 113.686 19.5876L113.686 22.0345C113.686 23.3918 112.586 24.4922 111.229 24.4922L110.723 24.4922L106.891 24.4922C106.199 24.4922 105.604 24.0012 105.472 23.3213L105.207 21.9565C104.931 20.5331 102.86 20.6408 102.733 22.0852L102.704 22.4141C102.679 22.7004 102.823 22.9751 103.072 23.1175C103.728 23.4915 103.462 24.4922 102.708 24.4922L98.2546 24.4922Z" fill="white"/>
<path d="M94.9058 41.7131C94.9058 42.5743 94.2076 43.2725 93.3464 43.2725L83.5199 43.2725C82.2972 43.2725 81.3643 42.1789 81.5572 40.9714L82.0547 37.8558C82.1792 37.0757 81.5766 36.3693 80.7867 36.3693C79.9822 36.3693 79.3759 37.1006 79.5249 37.8911L80.2372 41.6705C80.3941 42.5027 79.7558 43.2725 78.909 43.2725C78.1625 43.2725 77.5574 42.6673 77.5574 41.9209L77.5574 37.0379L77.5574 32.7008L77.5574 27.6935C77.5574 26.7163 78.3496 25.9241 79.3268 25.9241C80.0575 25.9241 80.713 26.3733 80.9768 27.0547L82.0662 29.869C82.2023 30.2206 82.5406 30.4524 82.9176 30.4524C83.6836 30.4524 84.109 29.566 83.63 28.9684L83.0046 28.1882C82.2737 27.2764 82.9229 25.9241 84.0915 25.9241L91.6607 25.9241C93.4529 25.9241 94.9058 27.377 94.9058 29.1692L94.9058 30.1766C94.9058 30.9035 94.4607 31.5563 93.7841 31.8218L93.3402 31.996C92.9739 32.1398 93.08 32.6843 93.4735 32.6801C94.262 32.6716 94.9058 33.3085 94.9058 34.097L94.9058 35.6632C94.9058 37.5921 93.0938 39.008 91.2221 38.5416L88.0774 37.758L88.0774 38.1404L93.8788 40.2475C94.4953 40.4714 94.9058 41.0572 94.9058 41.7131Z" fill="white"/>
<path d="M113.686 38.4389C113.686 41.1084 111.522 43.2725 108.853 43.2725L106.122 43.2725C104.276 43.2725 102.944 41.5047 103.453 39.7305L104.366 36.5511C104.418 36.3695 104.282 36.1885 104.093 36.1885C103.964 36.1885 103.851 36.2756 103.818 36.4005L102.64 40.8829C102.27 42.2909 100.997 43.2725 99.5416 43.2725C97.7723 43.2725 96.3379 41.8381 96.3379 40.0688L96.3379 39.1218C96.3379 37.9188 97.2066 36.8917 98.3929 36.6921L100.59 36.3224C101 36.2534 101.243 35.8247 101.091 35.4375C100.963 35.1101 100.599 34.9424 100.266 35.0577L99.0241 35.4888C97.7097 35.9449 96.3379 34.9688 96.3379 33.5776L96.3379 30.2878C96.3379 27.8778 98.2916 25.9241 100.702 25.9241L101.555 25.9241C102.482 25.9241 103.392 26.171 104.191 26.6393L108.207 28.9911C109.115 29.5227 109.355 30.7277 108.72 31.5666L108.326 32.0871C107.871 32.6892 108.071 33.5568 108.745 33.8981C109.374 34.2173 110.143 33.9321 110.412 33.2793L110.628 32.7539C110.804 32.3266 110.803 31.8468 110.624 31.4206L109.566 28.8968C108.973 27.4842 110.011 25.9241 111.543 25.9241C112.727 25.9241 113.686 26.8839 113.686 28.0678L113.686 29.6829L113.686 32.6647L113.686 38.4389Z" fill="white"/>
<path d="M119.72 17.8354H121.713V13.9099H124.335C126.619 13.9099 128.091 12.5353 128.091 10.5191C128.091 8.4724 126.619 7.14355 124.335 7.14355H119.72V17.8354ZM123.982 8.85425C125.27 8.85425 126.006 9.49576 126.006 10.5191C126.006 11.5425 125.255 12.2298 123.982 12.2298H121.713V8.85425H123.982Z" fill="white"/>
<path d="M128.865 11.9882L130.567 12.4312C130.901 11.7496 131.141 11.4203 131.971 11.4203C132.937 11.4203 133.366 11.8327 133.366 12.6117V12.8713C131.94 13.0088 130.775 13.299 129.87 13.7572C128.997 14.2002 128.567 14.9028 128.567 15.8803C128.567 17.2397 129.533 18.0645 131.02 18.0645C132.155 18.0645 132.906 17.4535 133.274 16.5065C133.335 16.3385 133.473 16.2469 133.657 16.2469C133.902 16.2469 134.025 16.3691 134.04 16.6135C134.102 17.5299 134.485 17.8354 135.604 17.8354H136.401V16.3691H135.681C135.282 16.3691 135.221 16.2927 135.221 15.9108V12.8408C135.221 10.9773 134.086 9.9998 131.971 9.9998C130.063 9.9998 129.344 10.9143 128.865 11.9882ZM133.366 14.0932V14.7042C133.366 16.0178 132.569 16.6593 131.618 16.6593C130.882 16.6593 130.468 16.308 130.468 15.697C130.468 14.7195 131.526 14.2918 133.366 14.0932Z" fill="white"/>
<path d="M137.008 17.8354H138.878V7.14355H137.008V17.8354Z" fill="white"/>
<path d="M140.556 17.8354H142.427V14.078C142.427 12.9324 142.595 11.5577 144.021 11.5577C144.941 11.5577 145.401 12.1076 145.401 13.1921V17.8354H147.241V14.078C147.241 12.9171 147.379 11.5577 148.835 11.5577C149.709 11.5577 150.215 12.0771 150.215 13.1921V17.8354H152.07V12.8713C152.07 11.0232 150.997 9.9998 149.525 9.9998C148.59 9.9998 147.808 10.5955 147.425 11.4814C147.333 11.6799 147.195 11.7869 146.995 11.7869C146.796 11.7869 146.643 11.6799 146.566 11.4661C146.198 10.5344 145.493 9.9998 144.558 9.9998C143.515 9.9998 142.871 10.6566 142.55 11.5883C142.504 11.7258 142.412 11.7869 142.289 11.7869C141.875 11.7869 141.768 11.6036 141.952 11.2217C142.12 10.8704 142.212 10.5038 142.212 10.2289H140.556V17.8354Z" fill="white"/>
<path d="M121.713 29.7682V24.3001C121.713 23.0935 121.529 22.2381 121.024 21.1537C120.916 20.9398 120.962 20.7565 121.161 20.6343C121.223 20.5885 121.299 20.5732 121.376 20.5732C121.514 20.5732 121.606 20.6191 121.683 20.7413L127.233 29.7682H129.655V19.0764H127.662V23.7961C127.692 25.2013 127.8 25.7053 128.352 26.637C128.49 26.8661 128.444 27.0494 128.229 27.1869C128.152 27.2327 128.076 27.2633 127.999 27.2633C127.876 27.2633 127.784 27.2022 127.708 27.08L122.787 19.0764H119.72V29.7682H121.713Z" fill="white"/>
<path d="M131.833 19.0764V29.7682H133.826V25.522H138.64V23.8113H133.826V20.7871H139.882V19.0764H131.833Z" fill="white"/>
<path d="M140.921 20.7871H144.646V29.7682H146.639V20.7871H150.426V19.0764H140.921V20.7871Z" fill="white"/>
<path d="M118.801 39.0224C119.26 40.7941 120.84 42.1688 123.476 42.1688C126.313 42.1688 127.754 40.7483 127.754 38.8543C127.754 37.0673 126.451 36.0134 124.289 35.6621L122.894 35.4177C121.882 35.2344 121.376 34.7915 121.376 34.0888C121.376 33.2946 121.989 32.6684 123.308 32.6684C124.688 32.6684 125.454 33.4015 125.776 34.4401L127.631 33.7223C127.202 32.3171 125.837 31.0188 123.369 31.0188C120.84 31.0188 119.337 32.424 119.337 34.1805C119.337 36.0286 120.441 36.9604 122.48 37.2964L123.844 37.5255C125.132 37.7393 125.684 38.2281 125.684 39.0071C125.684 39.9235 124.979 40.5192 123.507 40.5192C121.913 40.5192 121.008 39.6028 120.686 38.3045L118.801 39.0224Z" fill="white"/>
<path d="M128.018 34.3332V35.7843H129.674V39.9999C129.674 41.2218 130.364 41.9397 131.606 41.9397H133.875V40.4123H132.25C131.774 40.4123 131.544 40.1832 131.544 39.7097V35.7843H133.568V34.3332H131.544V31.9505H129.674V34.3332H128.018Z" fill="white"/>
<path d="M137.123 42.1688C138.288 42.1688 139.04 41.4357 139.469 40.3665C139.515 40.2443 139.607 40.1832 139.745 40.1832C140.143 40.1832 140.266 40.397 140.067 40.7483C139.821 41.176 139.699 41.5731 139.699 41.9397H141.447V34.3332H139.576V37.9074C139.576 38.6558 139.454 39.2973 139.193 39.8319C138.948 40.3512 138.503 40.6109 137.844 40.6109C136.97 40.6109 136.525 40.061 136.525 38.9613V34.3332H134.655V39.4042C134.655 41.1149 135.529 42.1688 137.123 42.1688Z" fill="white"/>
<path d="M145.723 42.1688C147.134 42.1688 147.732 41.4051 148.161 40.565C148.237 40.4276 148.345 40.3512 148.483 40.3512C148.881 40.3512 148.989 40.5345 148.789 40.8858C148.59 41.2524 148.452 41.6189 148.452 41.9397H150.154V31.2479H148.283V32.8517C148.283 34.0736 148.467 34.7915 148.774 35.3566C148.958 35.7079 148.835 35.9217 148.452 35.9217C148.299 35.9217 148.192 35.8606 148.146 35.7232C147.778 34.7609 147.042 34.1041 145.723 34.1041C143.899 34.1041 142.596 35.7384 142.596 38.1212C142.596 40.5498 143.899 42.1688 145.723 42.1688ZM144.527 38.1212C144.527 36.3189 145.263 35.5704 146.444 35.5704C147.578 35.5704 148.375 36.4105 148.375 38.1212C148.375 39.8472 147.578 40.7025 146.444 40.7025C145.263 40.7025 144.527 39.9541 144.527 38.1212Z" fill="white"/>
<path d="M151.739 33.1266H153.732V31.2326H151.739V33.1266ZM151.816 41.9397H153.671V34.3332H151.816V41.9397Z" fill="white"/>
<path d="M154.783 38.1365C154.783 40.4581 156.423 42.1688 158.631 42.1688C160.839 42.1688 162.479 40.5345 162.479 38.1365C162.479 35.769 160.869 34.1041 158.631 34.1041C156.377 34.1041 154.783 35.769 154.783 38.1365ZM156.715 38.167C156.715 36.4869 157.466 35.6162 158.631 35.6162C159.75 35.6162 160.547 36.4869 160.547 38.167C160.547 39.8166 159.796 40.6567 158.631 40.6567C157.466 40.6567 156.715 39.8166 156.715 38.167Z" fill="white"/>
<g clip-path="url(#clip0_155_7421)">
<path d="M26.4999 0C12.969 0 2 10.969 2 24.5C2 38.0311 12.969 49 26.4999 49C40.031 49 51 38.031 51 24.5C51 10.9691 40.031 0 26.4999 0ZM3.80232 24.5C3.80232 21.868 4.24478 19.3045 5.11989 16.8615L7.47653 18.4984V36.8903C6.74393 35.7678 6.11253 34.5801 5.58526 33.3341C4.40264 30.537 3.80232 27.5648 3.80232 24.5ZM42.5497 40.5498C40.4647 42.6346 38.0372 44.2715 35.3346 45.4147C32.5374 46.5979 29.5652 47.1976 26.5 47.1976C23.4353 47.1976 20.463 46.5979 17.666 45.4147C14.9629 44.2715 12.5358 42.6346 10.4504 40.5498C9.79289 39.8917 9.17989 39.2 8.61283 38.4761H21.1563L26.096 34.9V15.4356L21.1563 11.7573H7.71159C8.51316 10.5783 9.42817 9.47321 10.4504 8.45047C12.5358 6.36508 14.9629 4.72825 17.666 3.58537C20.463 2.40215 23.4353 1.80243 26.5 1.80243C29.5652 1.80243 32.5375 2.40215 35.3346 3.58537C38.0371 4.72825 40.4647 6.36508 42.5497 8.45047C43.5724 9.47316 44.4868 10.5783 45.2885 11.7573H41.7021L40.8965 13.5362L38.5019 11.7573H32.931L28.0269 15.4356V34.9L32.9079 38.4761H44.3878C43.8208 39.2 43.2076 39.8917 42.5497 40.5498ZM12.4846 17.8731H16.9707C18.2258 17.8731 19.243 18.8901 19.243 20.1453V30.204C19.243 31.4587 18.2258 32.4762 16.9707 32.4762H14.2793V19.1737L12.4846 17.8731ZM46.1222 35.919V28.9834H39.7735V32.4762H37.0312C35.8316 32.4762 34.8595 31.5041 34.8595 30.3046V19.1762L33.0637 17.8731H39.7735V21.6856H45.5929L46.7505 14.2352C46.9876 14.7025 47.2094 15.1797 47.4146 15.6655C48.5978 18.4625 49.1977 21.4347 49.1977 24.5C49.1977 27.5648 48.5978 30.5369 47.4146 33.3341C47.0372 34.2266 46.6059 35.089 46.1222 35.919Z" fill="white"/>
</g>
<line x1="62.9303" y1="4.08203" x2="62.9303" y2="42.8607" stroke="white" stroke-width="1.36066"/>
<defs>
<clipPath id="clip0_155_7421">
<rect width="49" height="49" fill="white" transform="translate(2)"/>
</clipPath>
</defs>
</svg>
